<svg width="24" height="24" viewBox="0 0 24 24" fill="none" xmlns="http://www.w3.org/2000/svg">
<path d="M0.333984 4.66675C0.333984 4.40153 0.439341 4.14718 0.626877 3.95964C0.814414 3.7721 1.06877 3.66675 1.33398 3.66675H2.66732C2.93253 3.66675 3.18689 3.7721 3.37442 3.95964C3.56196 4.14718 3.66732 4.40153 3.66732 4.66675C3.66732 4.93196 3.56196 5.18632 3.37442 5.37385C3.18689 5.56139 2.93253 5.66675 2.66732 5.66675H1.33398C1.06877 5.66675 0.814414 5.56139 0.626877 5.37385C0.439341 5.18632 0.333984 4.93196 0.333984 4.66675ZM5.66732 4.66675C5.66732 4.40153 5.77267 4.14718 5.96021 3.95964C6.14775 3.7721 6.4021 3.66675 6.66732 3.66675H22.6673C22.9325 3.66675 23.1869 3.7721 23.3744 3.95964C23.562 4.14718 23.6673 4.40153 23.6673 4.66675C23.6673 4.93196 23.562 5.18632 23.3744 5.37385C23.1869 5.56139 22.9325 5.66675 22.6673 5.66675H6.66732C6.4021 5.66675 6.14775 5.56139 5.96021 5.37385C5.77267 5.18632 5.66732 4.93196 5.66732 4.66675ZM0.333984 12.0001C0.333984 11.7349 0.439341 11.4805 0.626877 11.293C0.814414 11.1054 1.06877 11.0001 1.33398 11.0001H2.66732C2.93253 11.0001 3.18689 11.1054 3.37442 11.293C3.56196 11.4805 3.66732 11.7349 3.66732 12.0001C3.66732 12.2653 3.56196 12.5197 3.37442 12.7072C3.18689 12.8947 2.93253 13.0001 2.66732 13.0001H1.33398C1.06877 13.0001 0.814414 12.8947 0.626877 12.7072C0.439341 12.5197 0.333984 12.2653 0.333984 12.0001ZM5.66732 12.0001C5.66732 11.7349 5.77267 11.4805 5.96021 11.293C6.14775 11.1054 6.4021 11.0001 6.66732 11.0001H22.6673C22.9325 11.0001 23.1869 11.1054 23.3744 11.293C23.562 11.4805 23.6673 11.7349 23.6673 12.0001C23.6673 12.2653 23.562 12.5197 23.3744 12.7072C23.1869 12.8947 22.9325 13.0001 22.6673 13.0001H6.66732C6.4021 13.0001 6.14775 12.8947 5.96021 12.7072C5.77267 12.5197 5.66732 12.2653 5.66732 12.0001ZM0.333984 19.3334C0.333984 19.0682 0.439341 18.8138 0.626877 18.6263C0.814414 18.4388 1.06877 18.3334 1.33398 18.3334H2.66732C2.93253 18.3334 3.18689 18.4388 3.37442 18.6263C3.56196 18.8138 3.66732 19.0682 3.66732 19.3334C3.66732 19.5986 3.56196 19.853 3.37442 20.0405C3.18689 20.2281 2.93253 20.3334 2.66732 20.3334H1.33398C1.06877 20.3334 0.814414 20.2281 0.626877 20.0405C0.439341 19.853 0.333984 19.5986 0.333984 19.3334ZM5.66732 19.3334C5.66732 19.0682 5.77267 18.8138 5.96021 18.6263C6.14775 18.4388 6.4021 18.3334 6.66732 18.3334H22.6673C22.9325 18.3334 23.1869 18.4388 23.3744 18.6263C23.562 18.8138 23.6673 19.0682 23.6673 19.3334C23.6673 19.5986 23.562 19.853 23.3744 20.0405C23.1869 20.2281 22.9325 20.3334 22.6673 20.3334H6.66732C6.4021 20.3334 6.14775 20.2281 5.96021 20.0405C5.77267 19.853 5.66732 19.5986 5.66732 19.3334Z" fill="#007BFF"/>
</svg>
