<svg width="24" height="24" viewBox="0 0 24 24" fill="none" xmlns="http://www.w3.org/2000/svg">
<path d="M22.8668 2.00339C22.5638 1.76549 22.2106 1.59982 21.834 1.51895C21.4574 1.43809 21.0673 1.44416 20.6934 1.53672L15.9868 2.72339C15.7932 2.7629 15.5937 2.7629 15.4001 2.72339L8.76011 1.07005C8.35656 0.976649 7.937 0.976649 7.53344 1.07005L1.92011 2.48339C1.37139 2.6179 0.883786 2.9329 0.535591 3.37782C0.187396 3.82274 -0.00119031 4.37175 0.000110539 4.93672V19.8034C-0.00352362 20.1893 0.0824977 20.5709 0.2514 20.9179C0.420301 21.265 0.667472 21.5681 0.973444 21.8034C1.27639 22.0413 1.62959 22.207 2.00619 22.2878C2.38279 22.3687 2.77288 22.3626 3.14678 22.2701L7.85344 21.0834C8.047 21.0439 8.24655 21.0439 8.44011 21.0834L15.0801 22.7367C15.2818 22.7795 15.4873 22.8018 15.6934 22.8034C15.8996 22.801 16.105 22.7786 16.3068 22.7367L21.9201 21.3234C22.4688 21.1889 22.9564 20.8739 23.3046 20.4289C23.6528 19.984 23.8414 19.435 23.8401 18.8701V4.00339C23.8437 3.61743 23.7577 3.23589 23.5888 2.88884C23.4199 2.54178 23.1727 2.23867 22.8668 2.00339ZM7.48011 19.8034L2.82678 20.9634C2.64986 21.0107 2.46439 21.0165 2.28488 20.9802C2.10537 20.9439 1.9367 20.8665 1.79207 20.7542C1.64744 20.6419 1.53077 20.4976 1.45121 20.3326C1.37164 20.1676 1.33133 19.9865 1.33344 19.8034V4.93672C1.33424 4.67012 1.4238 4.41138 1.58797 4.20133C1.75215 3.99128 1.9816 3.84189 2.24011 3.77672L7.48011 2.45672V19.8034ZM15.0268 21.3501L8.81344 19.8034V2.45672L15.0268 4.00339V21.3501ZM22.5068 18.8701C22.506 19.1366 22.4164 19.3954 22.2522 19.6054C22.0881 19.8155 21.8586 19.9649 21.6001 20.0301L16.3601 21.3501V4.00339L21.0134 2.84339C21.1915 2.79679 21.378 2.79179 21.5583 2.82878C21.7387 2.86578 21.9081 2.94377 22.0534 3.05672C22.1965 3.16918 22.3119 3.31305 22.3905 3.47721C22.4691 3.64136 22.5089 3.82139 22.5068 4.00339V18.8701Z" fill="black"/>
</svg>
