<svg width="32" height="32" viewBox="0 0 32 32" fill="none" xmlns="http://www.w3.org/2000/svg">
<path d="M16.3213 2.20476e-05C14.6833 -0.00303384 13.0608 0.311609 11.5468 0.925906C10.0329 1.5402 8.65733 2.44209 7.49906 3.57977C6.34079 4.71745 5.42258 6.06854 4.79717 7.55558C4.17176 9.04262 3.85142 10.6363 3.85453 12.2452C3.74125 14.6642 4.29607 17.0682 5.46016 19.2027C8.24506 23.3409 11.2559 27.328 14.4797 31.1465C14.7011 31.4132 14.9802 31.6282 15.2967 31.7758C15.6132 31.9234 15.9592 32 16.3096 32C16.66 32 17.0059 31.9234 17.3224 31.7758C17.6389 31.6282 17.918 31.4132 18.1395 31.1465C21.3628 27.322 24.3812 23.3354 27.1826 19.2027C28.3358 17.0642 28.8899 14.6632 28.7882 12.2452C28.7913 10.6363 28.4709 9.04262 27.8455 7.55558C27.2201 6.06854 26.302 4.71745 25.1437 3.57977C23.9854 2.44209 22.6099 1.5402 21.0959 0.925906C19.582 0.311609 17.9594 -0.00303384 16.3213 2.20476e-05Z" fill="url(#paint0_linear_728_3832)"/>
<path fill-rule="evenodd" clip-rule="evenodd" d="M5.22185 12.2748L5.22035 12.3069C5.11934 14.4638 5.60853 16.6074 6.63643 18.5152C9.38416 22.594 12.3537 26.5243 15.5321 30.2892L15.5393 30.2977L15.5393 30.2978C15.6325 30.41 15.75 30.5005 15.8832 30.5627C16.0164 30.6248 16.1621 30.657 16.3096 30.657C16.4571 30.657 16.6027 30.6248 16.7359 30.5627C16.8691 30.5005 16.9866 30.41 17.0798 30.2978L17.0862 30.29L17.0863 30.2901C20.2644 26.5193 23.2415 22.5893 26.0056 18.5159C27.0242 16.6023 27.5129 14.4589 27.4221 12.3007L27.4209 12.2717L27.421 12.2427C27.4237 10.8106 27.1385 9.39201 26.5818 8.06833C26.0251 6.74468 25.2079 5.54205 24.1769 4.52939C23.1459 3.5167 21.9215 2.71392 20.5739 2.16713C19.2263 1.62033 17.782 1.34026 16.3239 1.34298L16.3187 1.34299C14.8607 1.34026 13.4164 1.62033 12.0689 2.16713C10.7213 2.71392 9.49688 3.5167 8.46586 4.52939C7.43485 5.54208 6.61754 6.74471 6.06085 8.06833C5.50416 9.39197 5.21902 10.8105 5.22179 12.2427L5.22185 12.2748ZM27.1826 19.2027C24.3812 23.3354 21.3628 27.322 18.1395 31.1465C17.918 31.4132 17.6389 31.6282 17.3224 31.7758C17.0059 31.9234 16.66 32 16.3096 32C15.9592 32 15.6132 31.9234 15.2967 31.7758C14.9802 31.6282 14.7011 31.4132 14.4797 31.1465C11.2559 27.328 8.24506 23.3409 5.46016 19.2027C4.29607 17.0682 3.74125 14.6642 3.85453 12.2452C3.85142 10.6363 4.17176 9.04262 4.79717 7.55558C5.42258 6.06854 6.34079 4.71745 7.49906 3.57977C8.65734 2.44209 10.0329 1.5402 11.5468 0.925906C13.0608 0.311609 14.6833 -0.00303384 16.3213 2.20476e-05C17.9594 -0.00303384 19.582 0.311609 21.0959 0.925906C22.6099 1.5402 23.9854 2.44209 25.1437 3.57977C26.302 4.71745 27.2201 6.06854 27.8455 7.55558C28.4709 9.04262 28.7913 10.6363 28.7882 12.2452C28.8899 14.6632 28.3358 17.0642 27.1826 19.2027Z" fill="url(#paint1_linear_728_3832)"/>
<g filter="url(#filter0_d_728_3832)">
<path d="M16.4135 17.1382C19.116 17.1382 21.3069 14.9473 21.3069 12.2448C21.3069 9.54219 19.116 7.35132 16.4135 7.35132C13.7109 7.35132 11.52 9.54219 11.52 12.2448C11.52 14.9473 13.7109 17.1382 16.4135 17.1382Z" fill="url(#paint2_linear_728_3832)"/>
</g>
<path fill-rule="evenodd" clip-rule="evenodd" d="M16.4135 14.819C17.8352 14.819 18.9877 13.6665 18.9877 12.2448C18.9877 10.823 17.8352 9.67049 16.4135 9.67049C14.9917 9.67049 13.8392 10.823 13.8392 12.2448C13.8392 13.6665 14.9917 14.819 16.4135 14.819ZM21.3069 12.2448C21.3069 14.9473 19.116 17.1382 16.4135 17.1382C13.7109 17.1382 11.52 14.9473 11.52 12.2448C11.52 9.54219 13.7109 7.35132 16.4135 7.35132C19.116 7.35132 21.3069 9.54219 21.3069 12.2448Z" fill="url(#paint3_linear_728_3832)"/>
<defs>
<filter id="filter0_d_728_3832" x="-6.47998" y="-4.64868" width="45.7869" height="45.7869" filterUnits="userSpaceOnUse" color-interpolation-filters="sRGB">
<feFlood flood-opacity="0" result="BackgroundImageFix"/>
<feColorMatrix in="SourceAlpha" type="matrix" values="0 0 0 0 0 0 0 0 0 0 0 0 0 0 0 0 0 0 127 0" result="hardAlpha"/>
<feOffset dy="6"/>
<feGaussianBlur stdDeviation="9"/>
<feColorMatrix type="matrix" values="0 0 0 0 0 0 0 0 0 0 0 0 0 0 0 0 0 0 0.2 0"/>
<feBlend mode="normal" in2="BackgroundImageFix" result="effect1_dropShadow_728_3832"/>
<feBlend mode="normal" in="SourceGraphic" in2="effect1_dropShadow_728_3832" result="shape"/>
</filter>
<linearGradient id="paint0_linear_728_3832" x1="12.1601" y1="9.6" x2="30.5567" y2="38.2852" gradientUnits="userSpaceOnUse">
<stop stop-color="#CECECE"/>
<stop offset="0.765625" stop-color="#727272"/>
</linearGradient>
<linearGradient id="paint1_linear_728_3832" x1="7.81331" y1="3.72804" x2="28.6823" y2="23.8885" gradientUnits="userSpaceOnUse">
<stop stop-color="white" stop-opacity="0.25"/>
<stop offset="1" stop-color="white" stop-opacity="0"/>
</linearGradient>
<linearGradient id="paint2_linear_728_3832" x1="8.98669" y1="14.6154" x2="13.0191" y2="23.5735" gradientUnits="userSpaceOnUse">
<stop stop-color="white"/>
<stop offset="1" stop-color="white" stop-opacity="0.2"/>
</linearGradient>
<linearGradient id="paint3_linear_728_3832" x1="13.0779" y1="8.4915" x2="19.3209" y2="16.2236" gradientUnits="userSpaceOnUse">
<stop stop-color="white" stop-opacity="0.25"/>
<stop offset="1" stop-color="white" stop-opacity="0"/>
</linearGradient>
</defs>
</svg>
