<svg width="196" height="93" viewBox="0 0 196 93" fill="none" xmlns="http://www.w3.org/2000/svg">
<path d="M102.996 0C128.899 0 149.897 20.7161 149.897 46.2712C149.897 71.8217 128.899 92.5332 102.996 92.5332C77.0925 92.5332 56.1035 71.8217 56.1035 46.2712C56.0988 20.7161 77.0925 0 102.996 0ZM102.996 53.2013C99.2497 53.1954 95.5404 53.93 92.0869 55.3618C88.6333 56.7936 85.5056 58.8936 82.8884 61.5377C82.5651 61.8633 82.31 62.2486 82.1376 62.6715C81.9652 63.0944 81.879 63.5466 81.8837 64.0024C81.8885 64.4582 81.9843 64.9086 82.1655 65.3279C82.3467 65.7472 82.6099 66.1271 82.94 66.4461C83.27 66.765 83.6605 67.0167 84.0892 67.1868C84.5179 67.3568 84.9763 67.4419 85.4383 67.4372C85.9003 67.4325 86.3568 67.338 86.7818 67.1592C87.2068 66.9805 87.5919 66.7208 87.9152 66.3952C89.8796 64.4132 92.2254 62.8381 94.815 61.7625C97.4047 60.6869 100.186 60.1323 102.996 60.1313C108.74 60.1313 114.109 62.3982 118.053 66.3628C118.377 66.6878 118.762 66.9467 119.188 67.1247C119.613 67.3027 120.07 67.3963 120.532 67.4002C120.994 67.4041 121.452 67.3181 121.88 67.1473C122.309 66.9764 122.699 66.724 123.028 66.4045C123.358 66.0849 123.62 65.7045 123.8 65.2848C123.981 64.8652 124.076 64.4147 124.08 63.9589C124.084 63.5031 123.996 63.051 123.823 62.6284C123.65 62.2059 123.394 61.8211 123.07 61.4961C120.455 58.8623 117.332 56.7709 113.885 55.3448C110.439 53.9188 106.738 53.1868 103 53.192M88.9281 31.2361C88.1447 31.2142 87.3648 31.3476 86.6346 31.6282C85.9043 31.9089 85.2386 32.3312 84.6766 32.8701C84.1147 33.409 83.668 34.0536 83.363 34.7658C83.0579 35.478 82.9008 36.2434 82.9008 37.0165C82.9008 37.7897 83.0579 38.555 83.363 39.2672C83.668 39.9794 84.1147 40.624 84.6766 41.163C85.2386 41.7019 85.9043 42.1242 86.6346 42.4048C87.3648 42.6855 88.1447 42.8188 88.9281 42.797C90.4533 42.7544 91.9017 42.1267 92.9652 41.0473C94.0288 39.9679 94.6238 38.5219 94.6238 37.0165C94.6238 35.5112 94.0288 34.0651 92.9652 32.9857C91.9017 31.9063 90.4533 31.2787 88.9281 31.2361ZM117.063 31.2361C116.28 31.2142 115.5 31.3476 114.77 31.6282C114.04 31.9089 113.374 32.3312 112.812 32.8701C112.25 33.409 111.803 34.0536 111.498 34.7658C111.193 35.478 111.036 36.2434 111.036 37.0165C111.036 37.7897 111.193 38.555 111.498 39.2672C111.803 39.9794 112.25 40.624 112.812 41.163C113.374 41.7019 114.04 42.1242 114.77 42.4048C115.5 42.6855 116.28 42.8188 117.063 42.797C118.589 42.7544 120.037 42.1267 121.101 41.0473C122.164 39.9679 122.759 38.5219 122.759 37.0165C122.759 35.5112 122.164 34.0651 121.101 32.9857C120.037 31.9063 118.589 31.2787 117.063 31.2361Z" fill="#007BFF"/>
<path d="M2.10522 65.901L3.54625 54.2185L38.6888 11.4482L57.3241 13.7468L51.63 59.9095L60.3801 60.9888L58.9099 72.9078L50.1598 71.8285L48.6312 84.2205L34.3946 82.4644L35.9231 70.0724L2.10522 65.901ZM18.5688 55.8314L37.6771 58.1884L41.3643 28.2962L40.7967 28.2262L18.6388 55.2638L18.5688 55.8314Z" fill="#007BFF"/>
<path d="M137.603 78.6061L136.275 66.9102L160.453 17.1133L179.11 14.9947L184.358 61.2101L193.118 60.2153L194.473 72.148L185.713 73.1428L187.122 85.549L172.869 87.1676L171.46 74.7614L137.603 78.6061ZM151.259 64.9689L170.389 62.7964L166.991 32.87L166.422 32.9346L151.194 64.4006L151.259 64.9689Z" fill="#007BFF"/>
</svg>
