<svg width="24" height="24" viewBox="0 0 24 24" fill="none" xmlns="http://www.w3.org/2000/svg">
<path d="M12 24C5.38286 24 0 18.6171 0 12C0 5.38286 5.38286 0 12 0C18.6171 0 24 5.38286 24 12C24 18.6171 18.6171 24 12 24ZM12 1.71429C6.32571 1.71429 1.71429 6.32571 1.71429 12C1.71429 17.6743 6.32571 22.2857 12 22.2857C17.6743 22.2857 22.2857 17.6743 22.2857 12C22.2857 6.32571 17.6743 1.71429 12 1.71429Z" fill="#21324C"/>
<path d="M11.9997 9.85707C12.7098 9.85707 13.2854 9.28144 13.2854 8.57136C13.2854 7.86128 12.7098 7.28564 11.9997 7.28564C11.2896 7.28564 10.714 7.86128 10.714 8.57136C10.714 9.28144 11.2896 9.85707 11.9997 9.85707Z" fill="#21324C"/>
<path d="M12.0001 18.8571C11.5201 18.8571 11.143 18.48 11.143 18V12.8571C11.143 12.3771 11.5201 12 12.0001 12C12.4801 12 12.8573 12.3771 12.8573 12.8571V18C12.8573 18.48 12.4801 18.8571 12.0001 18.8571Z" fill="#21324C"/>
</svg>
