<svg width="104" height="25" viewBox="0 0 104 25" fill="none" xmlns="http://www.w3.org/2000/svg">
<g clip-path="url(#clip0_66_4859)">
<path fill-rule="evenodd" clip-rule="evenodd" d="M25.2353 12.5C25.2353 15.8701 23.8891 18.9287 21.7003 21.1768C21.0542 21.8404 19.9921 21.4436 19.8091 20.5357L17.7468 10.3069C17.6015 9.58587 18.1012 8.89386 18.8313 8.80505L23.457 8.24242C24.0341 8.17222 24.5912 8.50377 24.7522 9.06242C25.0668 10.1546 25.2353 11.3078 25.2353 12.5ZM21.1365 5.88595C22.0684 5.7726 22.5409 4.72253 21.9017 4.03494C19.5959 1.55423 16.29 0 12.6176 0C7.8369 0 3.67716 2.63402 1.53646 6.51707C1.08448 7.33692 1.79459 8.23858 2.72392 8.12554L21.1365 5.88595ZM1.06865 10.9656C0.4889 11.0361 0.0265192 11.4953 0.00702124 12.079C0.00235268 12.2188 0 12.3591 0 12.5C0 19.4036 5.64911 25 12.6176 25C14.1039 25 15.5301 24.7454 16.8543 24.2779C17.411 24.0814 17.7093 23.4925 17.5926 22.9137L15.0765 10.4338C14.9463 9.7881 14.3413 9.35119 13.6874 9.43073L1.06865 10.9656Z" fill="#007BFF"/>
<path d="M9.5406 11.666C8.99929 11.665 8.4631 11.768 7.9628 11.9691C7.4625 12.1702 7.00793 12.4655 6.62517 12.838C6.2424 13.2104 5.93897 13.6527 5.73229 14.1396C5.52562 14.6264 5.41976 15.1481 5.42079 15.6749C5.38335 16.4668 5.5667 17.2538 5.95139 17.9526C6.87169 19.3074 7.86667 20.6127 8.93199 21.8628C9.00516 21.9501 9.0974 22.0205 9.20199 22.0688C9.30659 22.1171 9.42093 22.1422 9.53672 22.1422C9.6525 22.1422 9.76682 22.1171 9.87142 22.0688C9.97601 22.0205 10.0682 21.9501 10.1414 21.8628C11.2066 20.6107 12.2041 19.3056 13.1298 17.9526C13.5109 17.2525 13.694 16.4665 13.6604 15.6749C13.6615 15.1481 13.5556 14.6264 13.3489 14.1396C13.1422 13.6527 12.8388 13.2104 12.4561 12.838C12.0733 12.4655 11.6187 12.1702 11.1184 11.9691C10.6181 11.768 10.0819 11.665 9.5406 11.666Z" fill="#CFE2FF"/>
<path fill-rule="evenodd" clip-rule="evenodd" d="M5.87264 15.6846L5.87214 15.6951C5.83876 16.4012 6.00042 17.103 6.3401 17.7275C7.24812 19.0629 8.22943 20.3496 9.27979 21.5821L9.28217 21.5849L9.28216 21.5849C9.31296 21.6217 9.35179 21.6513 9.39582 21.6716C9.43983 21.692 9.48796 21.7025 9.53672 21.7025C9.58546 21.7025 9.63357 21.692 9.67759 21.6716C9.72162 21.6513 9.76046 21.6217 9.79125 21.5849L9.79337 21.5824L9.79338 21.5824C10.8436 20.3479 11.8274 19.0613 12.7409 17.7278C13.0775 17.1013 13.239 16.3996 13.209 15.693L13.2086 15.6835L13.2086 15.674C13.2095 15.2052 13.1153 14.7408 12.9313 14.3074C12.7473 13.8741 12.4773 13.4804 12.1366 13.1489C11.7959 12.8173 11.3912 12.5545 10.9459 12.3755C10.5006 12.1965 10.0233 12.1048 9.54146 12.1057L9.53974 12.1057C9.05791 12.1048 8.58064 12.1965 8.13531 12.3755C7.68999 12.5545 7.28537 12.8173 6.94466 13.1489C6.60395 13.4804 6.33386 13.8741 6.14989 14.3074C5.96593 14.7408 5.8717 15.2052 5.87262 15.674L5.87264 15.6846ZM13.1298 17.9526C12.2041 19.3056 11.2066 20.6107 10.1414 21.8628C10.0682 21.9501 9.97601 22.0205 9.87142 22.0688C9.76682 22.1171 9.6525 22.1422 9.53672 22.1422C9.42093 22.1422 9.30659 22.1171 9.20199 22.0688C9.0974 22.0205 9.00516 21.9501 8.93199 21.8628C7.86667 20.6127 6.87169 19.3074 5.95139 17.9526C5.5667 17.2538 5.38335 16.4668 5.42079 15.6749C5.41976 15.1481 5.52562 14.6264 5.7323 14.1396C5.93897 13.6527 6.2424 13.2104 6.62517 12.838C7.00793 12.4655 7.4625 12.1702 7.9628 11.9691C8.4631 11.768 8.99929 11.665 9.5406 11.666C10.0819 11.665 10.6181 11.768 11.1184 11.9691C11.6187 12.1702 12.0733 12.4655 12.4561 12.838C12.8388 13.2104 13.1422 13.6527 13.3489 14.1396C13.5556 14.6264 13.6615 15.1481 13.6604 15.6749C13.694 16.4665 13.5109 17.2525 13.1298 17.9526Z" fill="url(#paint0_linear_66_4859)"/>
<g filter="url(#filter0_d_66_4859)">
<path d="M9.5712 17.2763C10.4643 17.2763 11.1883 16.5591 11.1883 15.6743C11.1883 14.7895 10.4643 14.0723 9.5712 14.0723C8.6781 14.0723 7.9541 14.7895 7.9541 15.6743C7.9541 16.5591 8.6781 17.2763 9.5712 17.2763Z" fill="#007BFF"/>
</g>
<path fill-rule="evenodd" clip-rule="evenodd" d="M9.5712 16.5171C10.041 16.5171 10.4219 16.1397 10.4219 15.6743C10.4219 15.2088 10.041 14.8315 9.5712 14.8315C9.10137 14.8315 8.7205 15.2088 8.7205 15.6743C8.7205 16.1397 9.10137 16.5171 9.5712 16.5171ZM11.1883 15.6743C11.1883 16.5591 10.4643 17.2763 9.5712 17.2763C8.6781 17.2763 7.9541 16.5591 7.9541 15.6743C7.9541 14.7895 8.6781 14.0723 9.5712 14.0723C10.4643 14.0723 11.1883 14.7895 11.1883 15.6743Z" fill="url(#paint1_linear_66_4859)"/>
<path d="M100.289 24.4247H83.3912V14.5956H100.289V24.4247ZM95.0899 8.85969V12.3605H80.4395V1.05024H93.3297V4.55103H84.5557V8.85969H95.0899ZM100.289 12.7913L97.2564 13.8416C96.4981 14.1109 96.1732 13.9224 96.1732 13.2222V0H100.289V4.57796H103.999V8.18646H100.289V12.7913ZM96.1732 20.9239V18.0964H87.5074V20.9239H96.1732Z" fill="#3D87FF"/>
<path d="M76.2403 23.8323L73.2073 24.8825C72.4491 25.1518 72.1241 24.9633 72.1241 24.2632V0H76.2403V23.8323ZM70.6347 19.4159H56.0654V8.64426H64.4333V5.19732H56.0654V1.7504H68.6307V11.9296H60.2629V15.969H70.6347V19.4159Z" fill="#3D87FF"/>
<path d="M43.9321 1.05078V5.73645L52.4083 12.7919L49.6732 15.4579L41.7928 8.86023L33.9124 15.4579L31.1773 12.7919L39.6534 5.73645V1.05078H43.9321ZM53.7623 22.1632H29.8232V18.6086H39.7076V13.8421H43.878V18.6086H53.7623V22.1632Z" fill="#3D87FF"/>
</g>
<defs>
<filter id="filter0_d_66_4859" x="-14.7565" y="-1.06813" width="48.6556" height="48.6243" filterUnits="userSpaceOnUse" color-interpolation-filters="sRGB">
<feFlood flood-opacity="0" result="BackgroundImageFix"/>
<feColorMatrix in="SourceAlpha" type="matrix" values="0 0 0 0 0 0 0 0 0 0 0 0 0 0 0 0 0 0 127 0" result="hardAlpha"/>
<feOffset dy="7.5702"/>
<feGaussianBlur stdDeviation="11.3553"/>
<feColorMatrix type="matrix" values="0 0 0 0 0 0 0 0 0 0 0 0 0 0 0 0 0 0 0.2 0"/>
<feBlend mode="normal" in2="BackgroundImageFix" result="effect1_dropShadow_66_4859"/>
<feBlend mode="normal" in="SourceGraphic" in2="effect1_dropShadow_66_4859" result="shape"/>
</filter>
<linearGradient id="paint0_linear_66_4859" x1="6.72902" y1="12.8865" x2="13.563" y2="19.5506" gradientUnits="userSpaceOnUse">
<stop stop-color="#4498F3"/>
<stop offset="1" stop-color="#A9D2FF"/>
</linearGradient>
<linearGradient id="paint1_linear_66_4859" x1="8.46893" y1="14.4455" x2="10.5087" y2="16.9956" gradientUnits="userSpaceOnUse">
<stop stop-color="white" stop-opacity="0.25"/>
<stop offset="1" stop-color="white" stop-opacity="0"/>
</linearGradient>
<clipPath id="clip0_66_4859">
<rect width="104" height="25" fill="white"/>
</clipPath>
</defs>
</svg>
