<svg width="32" height="32" viewBox="0 0 32 32" fill="none" xmlns="http://www.w3.org/2000/svg">
<path d="M16.3212 2.20476e-05C14.6832 -0.00303384 13.0607 0.311609 11.5467 0.925906C10.0328 1.5402 8.65721 2.44209 7.49894 3.57977C6.34067 4.71745 5.42246 6.06854 4.79705 7.55558C4.17163 9.04262 3.8513 10.6363 3.85441 12.2452C3.74113 14.6642 4.29595 17.0682 5.46004 19.2027C8.24494 23.3409 11.2558 27.328 14.4795 31.1465C14.701 31.4132 14.9801 31.6282 15.2966 31.7758C15.6131 31.9234 15.9591 32 16.3095 32C16.6599 32 17.0058 31.9234 17.3223 31.7758C17.6388 31.6282 17.9179 31.4132 18.1393 31.1465C21.3627 27.322 24.3811 23.3354 27.1825 19.2027C28.3357 17.0642 28.8898 14.6632 28.7881 12.2452C28.7912 10.6363 28.4708 9.04262 27.8454 7.55558C27.22 6.06854 26.3018 4.71745 25.1436 3.57977C23.9853 2.44209 22.6098 1.5402 21.0958 0.925906C19.5819 0.311609 17.9593 -0.00303384 16.3212 2.20476e-05Z" fill="url(#paint0_linear_728_669)"/>
<path fill-rule="evenodd" clip-rule="evenodd" d="M5.22173 12.2748L5.22023 12.3069C5.11922 14.4638 5.60841 16.6074 6.63631 18.5152C9.38404 22.594 12.3535 26.5243 15.532 30.2892L15.5392 30.2977L15.5392 30.2978C15.6324 30.41 15.7499 30.5005 15.8831 30.5627C16.0163 30.6248 16.1619 30.657 16.3095 30.657C16.457 30.657 16.6026 30.6248 16.7358 30.5627C16.869 30.5005 16.9865 30.41 17.0797 30.2978L17.0861 30.29L17.0862 30.2901C20.2643 26.5193 23.2414 22.5893 26.0055 18.5159C27.0241 16.6023 27.5128 14.4589 27.422 12.3007L27.4208 12.2717L27.4209 12.2427C27.4236 10.8106 27.1384 9.39201 26.5817 8.06833C26.025 6.74468 25.2078 5.54205 24.1768 4.52939C23.1458 3.5167 21.9214 2.71392 20.5738 2.16713C19.2262 1.62033 17.7819 1.34026 16.3238 1.34298L16.3186 1.34299C14.8606 1.34026 13.4163 1.62033 12.0687 2.16713C10.7212 2.71392 9.49676 3.5167 8.46574 4.52939C7.43473 5.54208 6.61742 6.74471 6.06073 8.06833C5.50404 9.39197 5.2189 10.8105 5.22167 12.2427L5.22173 12.2748ZM27.1825 19.2027C24.3811 23.3354 21.3627 27.322 18.1393 31.1465C17.9179 31.4132 17.6388 31.6282 17.3223 31.7758C17.0058 31.9234 16.6599 32 16.3095 32C15.9591 32 15.6131 31.9234 15.2966 31.7758C14.9801 31.6282 14.701 31.4132 14.4795 31.1465C11.2558 27.328 8.24494 23.3409 5.46004 19.2027C4.29595 17.0682 3.74113 14.6642 3.85441 12.2452C3.8513 10.6363 4.17163 9.04262 4.79705 7.55558C5.42246 6.06854 6.34067 4.71745 7.49894 3.57977C8.65721 2.44209 10.0328 1.5402 11.5467 0.925906C13.0607 0.311609 14.6832 -0.00303384 16.3212 2.20476e-05C17.9593 -0.00303384 19.5819 0.311609 21.0958 0.925906C22.6098 1.5402 23.9853 2.44209 25.1436 3.57977C26.3018 4.71745 27.22 6.06854 27.8454 7.55558C28.4708 9.04262 28.7912 10.6363 28.7881 12.2452C28.8898 14.6632 28.3357 17.0642 27.1825 19.2027Z" fill="url(#paint1_linear_728_669)"/>
<g filter="url(#filter0_d_728_669)">
<path d="M16.4135 17.1382C19.116 17.1382 21.3069 14.9473 21.3069 12.2448C21.3069 9.54219 19.116 7.35132 16.4135 7.35132C13.7109 7.35132 11.52 9.54219 11.52 12.2448C11.52 14.9473 13.7109 17.1382 16.4135 17.1382Z" fill="url(#paint2_linear_728_669)"/>
</g>
<path fill-rule="evenodd" clip-rule="evenodd" d="M16.4135 14.819C17.8352 14.819 18.9877 13.6665 18.9877 12.2448C18.9877 10.823 17.8352 9.67049 16.4135 9.67049C14.9917 9.67049 13.8392 10.823 13.8392 12.2448C13.8392 13.6665 14.9917 14.819 16.4135 14.819ZM21.3069 12.2448C21.3069 14.9473 19.116 17.1382 16.4135 17.1382C13.7109 17.1382 11.52 14.9473 11.52 12.2448C11.52 9.54219 13.7109 7.35132 16.4135 7.35132C19.116 7.35132 21.3069 9.54219 21.3069 12.2448Z" fill="url(#paint3_linear_728_669)"/>
<defs>
<filter id="filter0_d_728_669" x="-6.47998" y="-4.64868" width="45.7869" height="45.7869" filterUnits="userSpaceOnUse" color-interpolation-filters="sRGB">
<feFlood flood-opacity="0" result="BackgroundImageFix"/>
<feColorMatrix in="SourceAlpha" type="matrix" values="0 0 0 0 0 0 0 0 0 0 0 0 0 0 0 0 0 0 127 0" result="hardAlpha"/>
<feOffset dy="6"/>
<feGaussianBlur stdDeviation="9"/>
<feColorMatrix type="matrix" values="0 0 0 0 0 0 0 0 0 0 0 0 0 0 0 0 0 0 0.2 0"/>
<feBlend mode="normal" in2="BackgroundImageFix" result="effect1_dropShadow_728_669"/>
<feBlend mode="normal" in="SourceGraphic" in2="effect1_dropShadow_728_669" result="shape"/>
</filter>
<linearGradient id="paint0_linear_728_669" x1="12.16" y1="9.6" x2="30.5565" y2="38.2852" gradientUnits="userSpaceOnUse">
<stop stop-color="#FFADA0"/>
<stop offset="0.765625" stop-color="#D90306"/>
</linearGradient>
<linearGradient id="paint1_linear_728_669" x1="7.81319" y1="3.72804" x2="28.6822" y2="23.8885" gradientUnits="userSpaceOnUse">
<stop stop-color="white" stop-opacity="0.25"/>
<stop offset="1" stop-color="white" stop-opacity="0"/>
</linearGradient>
<linearGradient id="paint2_linear_728_669" x1="8.98669" y1="14.6154" x2="13.0191" y2="23.5735" gradientUnits="userSpaceOnUse">
<stop stop-color="white"/>
<stop offset="1" stop-color="white" stop-opacity="0.2"/>
</linearGradient>
<linearGradient id="paint3_linear_728_669" x1="13.0779" y1="8.4915" x2="19.3209" y2="16.2236" gradientUnits="userSpaceOnUse">
<stop stop-color="white" stop-opacity="0.25"/>
<stop offset="1" stop-color="white" stop-opacity="0"/>
</linearGradient>
</defs>
</svg>
