<svg width="32" height="32" viewBox="0 0 32 32" fill="none" xmlns="http://www.w3.org/2000/svg">
<path d="M16.3212 2.20476e-05C14.6832 -0.00303384 13.0607 0.311609 11.5467 0.925906C10.0328 1.5402 8.65721 2.44209 7.49894 3.57977C6.34067 4.71745 5.42246 6.06854 4.79705 7.55558C4.17163 9.04262 3.8513 10.6363 3.85441 12.2452C3.74113 14.6642 4.29595 17.0682 5.46004 19.2027C8.24494 23.3409 11.2558 27.328 14.4795 31.1464C14.701 31.4132 14.9801 31.6282 15.2966 31.7758C15.6131 31.9234 15.9591 32 16.3095 32C16.6599 32 17.0058 31.9234 17.3223 31.7758C17.6388 31.6282 17.9179 31.4132 18.1393 31.1464C21.3627 27.322 24.3811 23.3354 27.1825 19.2027C28.3357 17.0642 28.8898 14.6632 28.7881 12.2452C28.7912 10.6363 28.4708 9.04262 27.8454 7.55558C27.22 6.06854 26.3018 4.71745 25.1436 3.57977C23.9853 2.44209 22.6098 1.5402 21.0958 0.925906C19.5819 0.311609 17.9593 -0.00303384 16.3212 2.20476e-05Z" fill="url(#paint0_linear_728_756)"/>
<g filter="url(#filter0_d_728_756)">
<path d="M16.4135 17.1382C19.116 17.1382 21.3069 14.9473 21.3069 12.2448C21.3069 9.54219 19.116 7.35132 16.4135 7.35132C13.7109 7.35132 11.52 9.54219 11.52 12.2448C11.52 14.9473 13.7109 17.1382 16.4135 17.1382Z" fill="url(#paint1_linear_728_756)"/>
</g>
<path fill-rule="evenodd" clip-rule="evenodd" d="M16.4135 14.819C17.8352 14.819 18.9877 13.6665 18.9877 12.2448C18.9877 10.823 17.8352 9.67049 16.4135 9.67049C14.9917 9.67049 13.8392 10.823 13.8392 12.2448C13.8392 13.6665 14.9917 14.819 16.4135 14.819ZM21.3069 12.2448C21.3069 14.9473 19.116 17.1382 16.4135 17.1382C13.7109 17.1382 11.52 14.9473 11.52 12.2448C11.52 9.54219 13.7109 7.35132 16.4135 7.35132C19.116 7.35132 21.3069 9.54219 21.3069 12.2448Z" fill="url(#paint2_linear_728_756)"/>
<defs>
<filter id="filter0_d_728_756" x="-6.47998" y="-4.64868" width="45.7869" height="45.7869" filterUnits="userSpaceOnUse" color-interpolation-filters="sRGB">
<feFlood flood-opacity="0" result="BackgroundImageFix"/>
<feColorMatrix in="SourceAlpha" type="matrix" values="0 0 0 0 0 0 0 0 0 0 0 0 0 0 0 0 0 0 127 0" result="hardAlpha"/>
<feOffset dy="6"/>
<feGaussianBlur stdDeviation="9"/>
<feColorMatrix type="matrix" values="0 0 0 0 0 0 0 0 0 0 0 0 0 0 0 0 0 0 0.2 0"/>
<feBlend mode="normal" in2="BackgroundImageFix" result="effect1_dropShadow_728_756"/>
<feBlend mode="normal" in="SourceGraphic" in2="effect1_dropShadow_728_756" result="shape"/>
</filter>
<linearGradient id="paint0_linear_728_756" x1="14.5215" y1="15.0361" x2="30.6139" y2="38.261" gradientUnits="userSpaceOnUse">
<stop stop-color="#B0FF8E"/>
<stop offset="1" stop-color="#028077"/>
</linearGradient>
<linearGradient id="paint1_linear_728_756" x1="8.98669" y1="14.6154" x2="13.0191" y2="23.5735" gradientUnits="userSpaceOnUse">
<stop stop-color="white"/>
<stop offset="1" stop-color="white" stop-opacity="0.2"/>
</linearGradient>
<linearGradient id="paint2_linear_728_756" x1="13.0779" y1="8.4915" x2="19.3209" y2="16.2236" gradientUnits="userSpaceOnUse">
<stop stop-color="white" stop-opacity="0.25"/>
<stop offset="1" stop-color="white" stop-opacity="0"/>
</linearGradient>
</defs>
</svg>
