<svg width="27" height="27" viewBox="0 0 27 27" fill="none" xmlns="http://www.w3.org/2000/svg">
<mask id="mask0_434_6281" style="mask-type:luminance" maskUnits="userSpaceOnUse" x="2" y="2" width="22" height="24">
<path fill-rule="evenodd" clip-rule="evenodd" d="M2.25 2.25049H23.9455V25.5616H2.25V2.25049Z" fill="white"/>
</mask>
<g mask="url(#mask0_434_6281)">
<path fill-rule="evenodd" clip-rule="evenodd" d="M8.10261 19.6205C8.36023 19.6205 8.61786 19.6531 8.86986 19.7206C9.63036 19.9254 10.2907 20.4339 10.6822 21.1167C10.9365 21.5454 11.0771 22.046 11.0816 22.5567C11.0816 23.288 11.6689 23.8741 12.3911 23.8741H13.8007C14.5196 23.8741 15.1069 23.2914 15.1102 22.5725C15.1057 21.7782 15.4162 21.0234 15.9844 20.4552C16.5446 19.895 17.3276 19.5586 18.1106 19.5811C18.6236 19.5935 19.1175 19.7319 19.5529 19.9794C20.1795 20.3382 20.9794 20.1245 21.3416 19.5057L22.0886 18.2604C22.2551 17.9735 22.3035 17.6135 22.2146 17.2816C22.1269 16.9497 21.9064 16.6617 21.6094 16.4919C20.9141 16.0914 20.418 15.4456 20.2121 14.6716C20.0085 13.9122 20.1199 13.0831 20.517 12.4002C20.7757 11.9502 21.1549 11.5711 21.6094 11.3101C22.2191 10.9535 22.4329 10.1559 22.0785 9.53486C22.0639 9.51011 22.0504 9.48424 22.0391 9.45724L21.3799 8.31424C21.021 7.68986 20.2222 7.47499 19.5956 7.83161C18.9184 8.23211 18.1129 8.34686 17.3389 8.14324C16.566 7.94299 15.918 7.45361 15.5141 6.76286C15.2554 6.33086 15.1147 5.82799 15.1102 5.31611C15.1204 4.93136 14.9854 4.58599 14.7401 4.33286C14.496 4.08086 14.1529 3.93799 13.8007 3.93799H12.3911C12.0424 3.93799 11.7161 4.07411 11.4697 4.31936C11.2245 4.56574 11.0906 4.89311 11.0929 5.24186C11.0692 6.88661 9.72486 8.21074 8.09698 8.21074C7.57498 8.20511 7.07211 8.06449 6.63561 7.80349C6.02248 7.45474 5.22148 7.66961 4.86261 8.29399L4.10098 9.54611C3.75223 10.1514 3.96598 10.9512 4.58698 11.3124C5.50836 11.8456 6.08323 12.8401 6.08323 13.9066C6.08323 14.9731 5.50836 15.9665 4.58473 16.5009C3.96711 16.8586 3.75336 17.654 4.11111 18.2727L4.82098 19.4967C4.99648 19.8129 5.28336 20.0412 5.61523 20.1346C5.94598 20.2269 6.31048 20.1875 6.61423 20.0187C7.06086 19.7566 7.58061 19.6205 8.10261 19.6205ZM13.8007 25.5616H12.3911C10.7385 25.5616 9.39411 24.2184 9.39411 22.5657C9.39186 22.3621 9.33336 22.1506 9.22423 21.9672C9.04761 21.659 8.76186 21.4385 8.43223 21.3507C8.10486 21.263 7.74598 21.3114 7.45123 21.4824C6.74473 21.8761 5.91336 21.9717 5.15286 21.758C4.39348 21.5431 3.73761 21.0211 3.35286 20.3292L2.64973 19.1176C1.82736 17.6911 2.31673 15.863 3.74098 15.0395C4.14486 14.8066 4.39573 14.3724 4.39573 13.9066C4.39573 13.4409 4.14486 13.0055 3.74098 12.7726C2.31561 11.9446 1.82736 10.112 2.64861 8.68549L3.41136 7.43336C4.22248 6.02261 6.05623 5.52536 7.48611 6.34661C7.68073 6.46249 7.89223 6.52099 8.10711 6.52324C8.80798 6.52324 9.39411 5.94499 9.40536 5.23399C9.40086 4.44986 9.71024 3.69724 10.2739 3.12911C10.8397 2.56211 11.5912 2.25049 12.3911 2.25049H13.8007C14.6062 2.25049 15.3892 2.58124 15.9506 3.15611C16.5109 3.73436 16.8202 4.52749 16.7966 5.33186C16.7989 5.51299 16.8585 5.72224 16.9665 5.90561C17.1454 6.20936 17.4277 6.42311 17.763 6.51086C18.0982 6.59411 18.4492 6.54911 18.7474 6.37249C20.1874 5.55011 22.02 6.04286 22.8424 7.47161L23.5432 8.68549C23.5612 8.71811 23.577 8.74961 23.5905 8.78224C24.3352 10.1896 23.838 11.9615 22.4542 12.7704C22.2529 12.8862 22.0897 13.0482 21.9772 13.244C21.8029 13.5466 21.7545 13.9066 21.8422 14.2374C21.9322 14.5749 22.1471 14.855 22.4497 15.0282C23.1326 15.4209 23.6422 16.0824 23.8459 16.8462C24.0495 17.609 23.9381 18.437 23.541 19.1199L22.794 20.3641C21.9716 21.7771 20.139 22.2665 18.7136 21.443C18.5235 21.3339 18.3041 21.2742 18.0859 21.2686H18.0791C17.754 21.2686 17.4199 21.407 17.1769 21.6489C16.9305 21.8952 16.7955 22.2237 16.7977 22.5725C16.7899 24.2251 15.4455 25.5616 13.8007 25.5616Z" fill="#21324C"/>
</g>
<path fill-rule="evenodd" clip-rule="evenodd" d="M13.1008 11.7839C11.9308 11.7839 10.979 12.7368 10.979 13.9068C10.979 15.0768 11.9308 16.0274 13.1008 16.0274C14.2708 16.0274 15.2225 15.0768 15.2225 13.9068C15.2225 12.7368 14.2708 11.7839 13.1008 11.7839ZM13.1008 17.7149C11.0004 17.7149 9.2915 16.0072 9.2915 13.9068C9.2915 11.8064 11.0004 10.0964 13.1008 10.0964C15.2011 10.0964 16.91 11.8064 16.91 13.9068C16.91 16.0072 15.2011 17.7149 13.1008 17.7149Z" fill="#21324C"/>
</svg>
