<svg width="20" height="20" viewBox="0 0 20 20" fill="none" xmlns="http://www.w3.org/2000/svg">
<g clip-path="url(#clip0_430_4341)">
<path d="M10.2007 1.37797e-05C9.17691 -0.00189615 8.16283 0.194756 7.21661 0.578691C6.2704 0.962627 5.41068 1.52631 4.68676 2.23736C3.96284 2.94841 3.38896 3.79284 2.99808 4.72224C2.60719 5.65164 2.40698 6.64769 2.40893 7.65327C2.33813 9.16511 2.68489 10.6676 3.41245 12.0017C5.15301 14.5881 7.0348 17.08 9.04963 19.4665C9.18803 19.6332 9.36247 19.7676 9.56029 19.8599C9.7581 19.9521 9.97436 20 10.1933 20C10.4123 20 10.6285 19.9521 10.8264 19.8599C11.0242 19.7676 11.1986 19.6332 11.337 19.4665C13.3516 17.0763 15.2381 14.5846 16.989 12.0017C17.7097 10.6651 18.0561 9.16447 17.9925 7.65327C17.9944 6.64769 17.7942 5.65164 17.4033 4.72224C17.0124 3.79284 16.4386 2.94841 15.7147 2.23736C14.9907 1.52631 14.131 0.962627 13.1848 0.578691C12.2386 0.194756 11.2245 -0.00189615 10.2007 1.37797e-05Z" fill="url(#paint0_linear_430_4341)"/>
<path fill-rule="evenodd" clip-rule="evenodd" d="M3.26351 7.67177L3.26257 7.69184C3.19944 9.03986 3.50518 10.3797 4.14762 11.572C5.86495 14.1212 7.72089 16.5777 9.70743 18.9308L9.71192 18.9361L9.7119 18.9361C9.77015 19.0063 9.84359 19.0628 9.92686 19.1017C10.0101 19.1405 10.1011 19.1607 10.1933 19.1607C10.2855 19.1607 10.3765 19.1405 10.4598 19.1017C10.5431 19.0628 10.6165 19.0063 10.6747 18.9361L10.6788 18.9313L10.6788 18.9313C12.6651 16.5745 14.5258 14.1183 16.2533 11.5724C16.89 10.3764 17.1954 9.03683 17.1387 7.68792L17.1379 7.66981L17.138 7.65168C17.1397 6.75662 16.9614 5.87001 16.6135 5.04271C16.2656 4.21542 15.7548 3.46378 15.1104 2.83087C14.466 2.19794 13.7008 1.6962 12.8585 1.35445C12.0163 1.01271 11.1136 0.837661 10.2023 0.839362L10.1991 0.839368C9.28778 0.837661 8.38513 1.01271 7.54288 1.35445C6.70065 1.6962 5.9354 2.19794 5.29101 2.83087C4.64663 3.4638 4.13581 4.21544 3.78788 5.04271C3.43995 5.86998 3.26174 6.75659 3.26347 7.65168L3.26351 7.67177ZM16.989 12.0017C15.2381 14.5846 13.3516 17.0763 11.337 19.4665C11.1986 19.6332 11.0242 19.7676 10.8264 19.8599C10.6285 19.9521 10.4123 20 10.1933 20C9.97436 20 9.7581 19.9521 9.56029 19.8599C9.36247 19.7676 9.18802 19.6332 9.04963 19.4665C7.0348 17.08 5.15301 14.5881 3.41245 12.0017C2.68489 10.6676 2.33813 9.16511 2.40893 7.65327C2.40698 6.64769 2.60719 5.65164 2.99808 4.72224C3.38896 3.79284 3.96284 2.94841 4.68676 2.23736C5.41068 1.52631 6.2704 0.962627 7.21661 0.578691C8.16283 0.194756 9.17691 -0.00189615 10.2007 1.37797e-05C11.2245 -0.00189615 12.2386 0.194756 13.1848 0.578691C14.131 0.962627 14.9907 1.52631 15.7147 2.23736C16.4386 2.94841 17.0124 3.79284 17.4033 4.72224C17.7942 5.65164 17.9944 6.64769 17.9925 7.65327C18.0561 9.16447 17.7097 10.6651 16.989 12.0017Z" fill="url(#paint1_linear_430_4341)"/>
<g filter="url(#filter0_d_430_4341)">
<path d="M10.2584 10.7114C11.9475 10.7114 13.3168 9.34206 13.3168 7.65295C13.3168 5.96384 11.9475 4.59454 10.2584 4.59454C8.56925 4.59454 7.19995 5.96384 7.19995 7.65295C7.19995 9.34206 8.56925 10.7114 10.2584 10.7114Z" fill="url(#paint2_linear_430_4341)"/>
</g>
<path fill-rule="evenodd" clip-rule="evenodd" d="M10.2584 9.26187C11.1469 9.26187 11.8673 8.54153 11.8673 7.65295C11.8673 6.76436 11.1469 6.04402 10.2584 6.04402C9.36977 6.04402 8.64943 6.76436 8.64943 7.65295C8.64943 8.54153 9.36977 9.26187 10.2584 9.26187ZM13.3168 7.65295C13.3168 9.34206 11.9475 10.7114 10.2584 10.7114C8.56925 10.7114 7.19995 9.34206 7.19995 7.65295C7.19995 5.96384 8.56925 4.59454 10.2584 4.59454C11.9475 4.59454 13.3168 5.96384 13.3168 7.65295Z" fill="url(#paint3_linear_430_4341)"/>
</g>
<defs>
<filter id="filter0_d_430_4341" x="-10.8" y="-7.40546" width="42.1167" height="42.1168" filterUnits="userSpaceOnUse" color-interpolation-filters="sRGB">
<feFlood flood-opacity="0" result="BackgroundImageFix"/>
<feColorMatrix in="SourceAlpha" type="matrix" values="0 0 0 0 0 0 0 0 0 0 0 0 0 0 0 0 0 0 127 0" result="hardAlpha"/>
<feOffset dy="6"/>
<feGaussianBlur stdDeviation="9"/>
<feColorMatrix type="matrix" values="0 0 0 0 0 0 0 0 0 0 0 0 0 0 0 0 0 0 0.2 0"/>
<feBlend mode="normal" in2="BackgroundImageFix" result="effect1_dropShadow_430_4341"/>
<feBlend mode="normal" in="SourceGraphic" in2="effect1_dropShadow_430_4341" result="shape"/>
</filter>
<linearGradient id="paint0_linear_430_4341" x1="7.5999" y1="6" x2="19.0978" y2="23.9282" gradientUnits="userSpaceOnUse">
<stop stop-color="#FFADA0"/>
<stop offset="0.765625" stop-color="#D90306"/>
</linearGradient>
<linearGradient id="paint1_linear_430_4341" x1="4.88317" y1="2.33003" x2="17.9263" y2="14.9303" gradientUnits="userSpaceOnUse">
<stop stop-color="white" stop-opacity="0.25"/>
<stop offset="1" stop-color="white" stop-opacity="0"/>
</linearGradient>
<linearGradient id="paint2_linear_430_4341" x1="5.61662" y1="9.13457" x2="8.13688" y2="14.7334" gradientUnits="userSpaceOnUse">
<stop stop-color="white"/>
<stop offset="1" stop-color="white" stop-opacity="0.2"/>
</linearGradient>
<linearGradient id="paint3_linear_430_4341" x1="8.17365" y1="5.30716" x2="12.0755" y2="10.1397" gradientUnits="userSpaceOnUse">
<stop stop-color="white" stop-opacity="0.25"/>
<stop offset="1" stop-color="white" stop-opacity="0"/>
</linearGradient>
<clipPath id="clip0_430_4341">
<rect width="20" height="20" fill="white"/>
</clipPath>
</defs>
</svg>
