<svg width="20" height="20" viewBox="0 0 20 20" fill="none" xmlns="http://www.w3.org/2000/svg">
<g clip-path="url(#clip0_430_4324)">
<path d="M10.2007 1.37797e-05C9.17691 -0.00189615 8.16283 0.194756 7.21661 0.578691C6.2704 0.962627 5.41068 1.52631 4.68676 2.23736C3.96284 2.94841 3.38896 3.79284 2.99808 4.72224C2.60719 5.65164 2.40698 6.64769 2.40893 7.65327C2.33813 9.16511 2.68489 10.6676 3.41245 12.0017C5.15301 14.5881 7.0348 17.08 9.04963 19.4665C9.18802 19.6332 9.36247 19.7676 9.56029 19.8599C9.7581 19.9521 9.97436 20 10.1933 20C10.4123 20 10.6285 19.9521 10.8264 19.8599C11.0242 19.7676 11.1986 19.6332 11.337 19.4665C13.3516 17.0763 15.2381 14.5846 16.989 12.0017C17.7097 10.6651 18.0561 9.16447 17.9925 7.65327C17.9944 6.64769 17.7942 5.65164 17.4033 4.72224C17.0124 3.79284 16.4386 2.94841 15.7147 2.23736C14.9907 1.52631 14.131 0.962627 13.1848 0.578691C12.2386 0.194756 11.2245 -0.00189615 10.2007 1.37797e-05Z" fill="url(#paint0_linear_430_4324)"/>
<g filter="url(#filter0_d_430_4324)">
<path d="M10.2584 10.7114C11.9475 10.7114 13.3168 9.34206 13.3168 7.65295C13.3168 5.96384 11.9475 4.59454 10.2584 4.59454C8.56925 4.59454 7.19995 5.96384 7.19995 7.65295C7.19995 9.34206 8.56925 10.7114 10.2584 10.7114Z" fill="url(#paint1_linear_430_4324)"/>
</g>
<path fill-rule="evenodd" clip-rule="evenodd" d="M10.2584 9.26187C11.1469 9.26187 11.8673 8.54153 11.8673 7.65295C11.8673 6.76436 11.1469 6.04402 10.2584 6.04402C9.36977 6.04402 8.64943 6.76436 8.64943 7.65295C8.64943 8.54153 9.36977 9.26187 10.2584 9.26187ZM13.3168 7.65295C13.3168 9.34206 11.9475 10.7114 10.2584 10.7114C8.56925 10.7114 7.19995 9.34206 7.19995 7.65295C7.19995 5.96384 8.56925 4.59454 10.2584 4.59454C11.9475 4.59454 13.3168 5.96384 13.3168 7.65295Z" fill="url(#paint2_linear_430_4324)"/>
</g>
<defs>
<filter id="filter0_d_430_4324" x="-10.8" y="-7.40546" width="42.1167" height="42.1168" filterUnits="userSpaceOnUse" color-interpolation-filters="sRGB">
<feFlood flood-opacity="0" result="BackgroundImageFix"/>
<feColorMatrix in="SourceAlpha" type="matrix" values="0 0 0 0 0 0 0 0 0 0 0 0 0 0 0 0 0 0 127 0" result="hardAlpha"/>
<feOffset dy="6"/>
<feGaussianBlur stdDeviation="9"/>
<feColorMatrix type="matrix" values="0 0 0 0 0 0 0 0 0 0 0 0 0 0 0 0 0 0 0.2 0"/>
<feBlend mode="normal" in2="BackgroundImageFix" result="effect1_dropShadow_430_4324"/>
<feBlend mode="normal" in="SourceGraphic" in2="effect1_dropShadow_430_4324" result="shape"/>
</filter>
<linearGradient id="paint0_linear_430_4324" x1="9.07585" y1="9.39757" x2="19.1336" y2="23.9131" gradientUnits="userSpaceOnUse">
<stop stop-color="#B0FF8E"/>
<stop offset="1" stop-color="#028077"/>
</linearGradient>
<linearGradient id="paint1_linear_430_4324" x1="5.61662" y1="9.13457" x2="8.13688" y2="14.7334" gradientUnits="userSpaceOnUse">
<stop stop-color="white"/>
<stop offset="1" stop-color="white" stop-opacity="0.2"/>
</linearGradient>
<linearGradient id="paint2_linear_430_4324" x1="8.17365" y1="5.30716" x2="12.0755" y2="10.1397" gradientUnits="userSpaceOnUse">
<stop stop-color="white" stop-opacity="0.25"/>
<stop offset="1" stop-color="white" stop-opacity="0"/>
</linearGradient>
<clipPath id="clip0_430_4324">
<rect width="20" height="20" fill="white"/>
</clipPath>
</defs>
</svg>
